<?xml version="1.0" encoding="iso-8859-1"?>
<!-- Generator: Adobe Illustrator 19.0.0, SVG Export Plug-In . SVG Version: 6.00 Build 0)  -->
<svg version="1.1" id="Capa_1" xmlns="http://www.w3.org/2000/svg" xmlns:xlink="http://www.w3.org/1999/xlink" x="0px" y="0px"
	 width="31.178px" height="31.178px" viewBox="0 0 512 512" style="enable-background:new 0 0 512 512;" xml:space="preserve">
<g>
	<g>
		<path d="M468,492h-62.856v-54.365c0-15.156-3.639-29.645-10.213-42.5C447.751,352.724,478,289.798,478,222
			c0-59.298-23.092-115.047-65.022-156.978C371.048,23.092,315.299,0,256,0S140.953,23.092,99.023,65.022
			C57.092,106.953,34,162.702,34,222c0,67.786,30.25,130.723,83.067,173.134c-6.574,12.855-10.214,27.345-10.214,42.502V492H10
			c-5.523,0-10,4.477-10,10s4.477,10,10,10h458c5.523,0,10-4.477,10-10S473.523,492,468,492z M431.684,321.913H392.5
			c-5.523,0-10,4.477-10,10s4.477,10,10,10h26.141c-9.896,13.367-21.523,25.614-34.745,36.433
			c-6.479-7.868-14.259-14.694-23.104-20.129c16.567-36.037,26.18-80.409,27.406-126.216h69.545
			C456.187,264.087,447.169,294.741,431.684,321.913z M229.202,344.172c8.389,2.969,17.404,4.602,26.797,4.602
			c9.395,0,18.411-1.633,26.801-4.603v14.364c0,14.777-12.022,26.799-26.799,26.799c-14.777,0-26.799-12.022-26.799-26.799V344.172z
			 M255.999,328.773c-33.381,0-60.539-27.158-60.539-60.539v-4.559c16.698-2.109,32.109-9.455,44.235-21.1
			c14.516,13.94,33.73,21.748,54.236,21.748c7.671,0,15.301-1.141,22.607-3.332v7.243
			C316.538,301.616,289.38,328.773,255.999,328.773z M175.46,232v36.234c0,26.646,13.016,50.299,33.015,64.968v3.412l-37.694,12.491
			c-0.508,0.168-1.004,0.357-1.507,0.533c-15.337-33.454-24.257-74.765-25.461-117.638H175.46z M143.805,212.001
			c0.872-32.002,5.934-62.611,14.717-89.913H246v47.206h-12.583c-26.68,0-49.193,18.126-55.906,42.707H143.805z M303.524,333.202
			c19.998-14.669,33.015-38.322,33.015-64.968V232h31.65c-1.206,42.861-10.129,84.191-25.464,117.638
			c-0.504-0.176-1.001-0.364-1.508-0.533l-37.693-12.491V333.202z M457.751,212h-69.552c-0.824-31.7-5.56-62.221-13.805-89.912
			h57.116C446.803,148.849,456.155,179.421,457.751,212z M418.453,102.088h-50.815c-4.736-12.455-10.237-24.184-16.474-34.993
			c-7.842-13.589-16.555-25.258-25.946-34.876C362.74,45.947,395.081,70.507,418.453,102.088z M266,20.823
			c25.271,4.109,49.058,23.718,67.841,56.269c4.515,7.824,8.61,16.188,12.282,24.997H266V20.823z M266,122.087h87.479
			c8.783,27.302,13.844,57.911,14.717,89.912h-31.658v-32.706c0-5.523-4.477-10-10-10H266V122.087z M316.538,189.293v50.467
			c-7.122,2.981-14.83,4.564-22.607,4.564c-18.252,0-35.135-8.308-46.321-22.793c-1.894-2.452-4.817-3.888-7.915-3.888
			c-3.098,0-6.021,1.436-7.915,3.888c-9.108,11.795-21.994,19.492-36.32,21.945V227.25c0-20.93,17.027-37.957,37.957-37.957H316.538
			z M246,20.823v81.265h-80.124c3.672-8.809,7.768-17.173,12.282-24.997C196.942,44.54,220.73,24.932,246,20.823z M186.782,32.219
			c-9.391,9.618-18.104,21.287-25.946,34.876c-6.237,10.809-11.738,22.537-16.474,34.993H93.547
			C116.919,70.507,149.261,45.947,186.782,32.219z M80.49,122.088h57.116C129.361,149.78,124.625,180.3,123.801,212H54.249
			C55.845,179.421,65.197,148.848,80.49,122.088z M93.362,341.912H116c5.523,0,10-4.477,10-10s-4.477-10-10-10H80.321
			C64.836,294.738,55.815,264.083,54.259,232h69.544c1.225,45.82,10.834,90.169,27.403,126.216
			c-8.844,5.435-16.624,12.26-23.103,20.127C114.883,367.526,103.257,355.28,93.362,341.912z M385.144,492H358v-54.914
			c0-5.523-4.477-10-10-10s-10,4.477-10,10V492H174v-54.914c0-5.523-4.477-10-10-10s-10,4.477-10,10V492h-27.147v-54.365
			c0-31.644,20.181-59.591,50.219-69.545l32.129-10.647v1.092c0,25.805,20.994,46.799,46.799,46.799s46.8-20.994,46.8-46.799v-1.091
			l32.126,10.646c30.037,9.954,50.218,37.902,50.218,69.545V492z"/>
	</g>
</g>
<g>
	<g>
		<path d="M509.07,494.93c-1.86-1.86-4.44-2.93-7.07-2.93s-5.21,1.07-7.07,2.93c-1.86,1.86-2.93,4.44-2.93,7.07s1.07,5.21,2.93,7.07
			c1.86,1.86,4.44,2.93,7.07,2.93s5.21-1.07,7.07-2.93c1.86-1.86,2.93-4.44,2.93-7.07S510.93,496.791,509.07,494.93z"/>
	</g>
</g>
<g>
</g>
<g>
</g>
<g>
</g>
<g>
</g>
<g>
</g>
<g>
</g>
<g>
</g>
<g>
</g>
<g>
</g>
<g>
</g>
<g>
</g>
<g>
</g>
<g>
</g>
<g>
</g>
<g>
</g>
</svg>
